<?xml version="1.0" standalone="no"?>
<!DOCTYPE svg PUBLIC "-//W3C//DTD SVG 20010904//EN"
 "http://www.w3.org/TR/2001/REC-SVG-20010904/DTD/svg10.dtd">
<svg version="1.0" xmlns="http://www.w3.org/2000/svg"
 width="48.000000pt" height="48.000000pt" viewBox="0 0 48.000000 48.000000"
 preserveAspectRatio="xMidYMid meet">
<metadata>
Created by potrace 1.16, written by Peter Selinger 2001-2019
</metadata>
<g transform="translate(0.000000,48.000000) scale(0.100000,-0.100000)"
fill="#000000" stroke="none">
<path d="M166 414 c-21 -21 -26 -36 -26 -74 0 -66 34 -100 100 -100 38 0 53 5
74 26 37 38 37 110 0 148 -21 21 -36 26 -74 26 -38 0 -53 -5 -74 -26z"/>
<path d="M87 194 c-4 -4 -7 -26 -7 -49 0 -69 55 -105 161 -105 108 0 162 38
157 111 l-3 44 -151 3 c-82 1 -153 -1 -157 -4z"/>
</g>
</svg>
