<?xml version="1.0"?>
<svg xmlns="http://www.w3.org/2000/svg" xmlns:xlink="http://www.w3.org/1999/xlink" xmlns:svgjs="http://svgjs.com/svgjs" version="1.1" width="512" height="512" x="0" y="0" viewBox="0 0 512 512" style="enable-background:new 0 0 512 512" xml:space="preserve" class=""><g><g xmlns="http://www.w3.org/2000/svg"><path d="m504.5 246.5c4.142 0 7.5-3.357 7.5-7.5v-32.5c0-15.01-12.089-27.242-27.041-27.488-4.977-14.778-11.425-29.059-19.186-42.605-.268-.656-.627-1.264-1.059-1.812-16.319-27.927-38.212-52.667-64.216-72.113-41.934-31.36-91.846-47.949-144.35-47.98-.001 0-.003 0-.004 0-.048 0-.096-.001-.144-.001-.047 0-.095.001-.142.001-.002 0-.004 0-.006 0-48.843.029-95.885 14.564-136.048 42.04-3.419 2.339-4.294 7.007-1.956 10.425s7.004 4.294 10.425 1.956c31.148-21.309 66.714-34.308 104-38.185-21.383 17.782-39.956 38.273-55.368 61.169-8.548 12.698-16.035 26.004-22.447 39.829h-87.841c9.969-15.164 21.767-29.165 35.173-41.632 3.033-2.821 3.206-7.566.385-10.6-2.82-3.033-7.566-3.205-10.6-.385-29.532 27.464-51.759 61.908-64.533 99.893-14.952.246-27.042 12.477-27.042 27.488v99c0 15.008 12.086 27.238 27.035 27.488 15.216 45.442 45.623 87.694 84.73 116.728 41.913 31.256 91.781 47.779 144.212 47.784.005 0 .011.001.016.001h.006s.004 0 .006 0c.005 0 .011-.001.016-.001 52.566-.005 102.537-16.605 144.511-48.008 39.101-29.253 68.918-70.463 84.424-116.504 14.954-.247 27.044-12.478 27.044-27.488v-31.5c0-4.143-3.358-7.5-7.5-7.5s-7.5 3.357-7.5 7.5v31.5c0 6.893-5.607 12.5-12.5 12.5h-457c-6.893 0-12.5-5.607-12.5-12.5v-99c0-6.893 5.607-12.5 12.5-12.5h457c6.893 0 12.5 5.607 12.5 12.5v32.5c0 4.142 3.358 7.5 7.5 7.5zm-367.176 86.5c3.079 11.481 6.844 22.721 11.261 33.677h-90.363c-5.934-10.666-11.068-21.912-15.304-33.677zm331.754 0c-4.234 11.766-9.361 23.012-15.29 33.677h-90.37c4.409-10.942 8.174-22.176 11.257-33.677zm-121.835 33.676h-83.743v-33.676h95.607c-3.272 11.574-7.231 22.812-11.864 33.676zm-6.929 15c-18.108 36.225-44.04 67.829-76.814 93.417v-93.417zm-91.814-15h-83.675c-4.687-10.926-8.676-22.17-11.939-33.677h95.614zm-181.156 15h87.785c4.083 8.683 8.586 17.165 13.516 25.408 1.405 2.349 3.892 3.651 6.444 3.651 1.31 0 2.637-.343 3.842-1.064 3.555-2.126 4.713-6.731 2.587-10.286-3.46-5.784-6.7-11.692-9.722-17.709h76.704v93.417c-17.888-13.996-33.894-29.96-47.698-47.606-2.552-3.262-7.266-3.84-10.528-1.286-3.262 2.552-3.838 7.266-1.286 10.528 12.736 16.281 27.248 31.193 43.301 44.547-67.986-7.015-128.041-43.935-164.945-99.6zm212.36 99.605c32.362-26.87 59.051-60.971 77.186-99.604h87.781c-36.888 55.683-96.919 92.597-164.967 99.604zm94.973-302.281c-2.947-10.99-6.521-21.758-10.693-32.265h90.588c5.6 10.243 10.459 21.018 14.507 32.265zm-111.177-32.265h84.271c4.427 10.481 8.217 21.251 11.341 32.265h-95.612zm-15 32.265h-95.607c3.129-11.072 6.877-21.842 11.252-32.265h84.355zm197.097-47.265h-88.062c-4.458-9.613-9.431-18.979-14.922-28.056-2.144-3.543-6.753-4.681-10.299-2.535-3.544 2.144-4.679 6.755-2.535 10.299 3.997 6.607 7.698 13.38 11.12 20.292h-77.399v-94.831c17.523 13.711 33.241 29.312 46.847 46.525 2.476 2.142 5.203 4.451 10.534 1.233 3.25-2.568 3.802-7.285 1.233-10.534-12.516-15.836-26.728-30.366-42.407-43.409 68.613 7.068 129.083 44.548 165.89 101.016zm-197.097-94.829v94.829h-77.503c18.138-36.814 44.305-68.91 77.503-94.829zm-100.488 109.829c-4.166 10.495-7.737 21.259-10.687 32.265h-94.396c4.027-11.133 8.928-21.921 14.638-32.265z" fill="#ff7a01" data-original="#000000" style="" class=""/><path d="m103.712 212.128c-3.134.977-5.268 3.878-5.268 7.16v73.56c0 4.143 3.358 7.5 7.5 7.5s7.5-3.357 7.5-7.5v-49.501l36.066 52.227c2.272 3.283 6.035 4.685 9.585 3.578 3.64-1.137 5.991-4.586 5.991-8.859l-.689-71.214c-.04-4.118-3.39-7.428-7.498-7.428-.024 0-.049 0-.074 0-4.142.04-7.467 3.431-7.427 7.572l.489 50.499-37.772-54.695c-1.865-2.701-5.27-3.872-8.403-2.899z" fill="#ff7a01" data-original="#000000" style="" class=""/><path d="m218.356 226.987c4.142 0 7.5-3.357 7.5-7.5s-3.358-7.5-7.5-7.5h-30.77c-4.142 0-7.5 3.357-7.5 7.5v73.025c0 4.143 3.358 7.5 7.5 7.5h30.77c4.142 0 7.5-3.357 7.5-7.5s-3.358-7.5-7.5-7.5h-23.27v-21.512h21c4.142 0 7.5-3.357 7.5-7.5s-3.358-7.5-7.5-7.5h-21v-21.513z" fill="#ff7a01" data-original="#000000" style="" class=""/><path d="m383.88 285.348c-7.801 0-15.324-3.163-20.125-8.461-2.781-3.069-7.524-3.303-10.594-.521s-3.303 7.524-.521 10.594c7.597 8.384 19.275 13.389 31.24 13.389 14.463 0 27.071-9.524 29.326-22.154 1.713-9.593-2.729-22.157-20.331-28.649-9.33-3.442-17.995-7.196-20.353-8.23-2.019-1.523-2.993-3.926-2.62-6.523.233-1.626 1.389-5.592 7.063-7.301 11.301-3.401 21.596 4.79 21.859 5.004 3.171 2.636 7.88 2.22 10.537-.94 2.665-3.171 2.255-7.902-.915-10.567-.667-.56-16.548-13.658-35.808-7.859-9.529 2.871-16.267 10.355-17.584 19.533-1.23 8.57 2.483 16.812 9.689 21.51 1.137.729 11.057 4.983 22.94 9.447 7.684 2.835 11.604 7.187 10.756 11.94-.858 4.811-6.54 9.788-14.559 9.788z" fill="#ff7a01" data-original="#000000" style="" class=""/><path d="m320.842 217.823-9.861 49.551-15.536-50.431c-1.219-3.959-5.417-6.179-9.375-4.96-2.727.84-4.628 3.094-5.149 5.709l-15.379 49.686-9.827-49.682c-.804-4.063-4.753-6.699-8.813-5.902-4.063.804-6.706 4.749-5.902 8.813.48 2.005 14.011 71.641 14.649 73.647 1.298 3.652 4.763 6.095 8.634 6.095h.063c3.897-.026 7.358-2.523 8.613-6.213.038-.096 15.236-49.224 15.323-49.497.077.228 15.138 49.181 15.291 49.613 1.297 3.653 4.762 6.097 8.634 6.097h.062c3.897-.026 7.359-2.523 8.614-6.213.416-1.099 14.375-72.247 14.671-73.385.808-4.063-1.83-8.011-5.892-8.819-4.064-.815-8.011 1.828-8.82 5.891z" fill="#ff7a01" data-original="#000000" style="" class=""/></g></g></svg>
